<svg xmlns="http://www.w3.org/2000/svg" width="134" height="90" viewBox="0 0 134 90" class='logo'>
    <style>
       
        @keyframes logosvg-a0_t {
            0% {
                transform: translate(46.5px, 45px) scaleX(-1) translate(-46.5px, -45.5px);
                animation-timing-function: cubic-bezier(.8, 0, .2, 1);
            }

            100% {
                transform: translate(41.5px, 34.5px) scaleX(-1) translate(-46.5px, -45.5px);
            }
        }

        @keyframes logosvg-a0_d {
            0% {
                d: path('M51.5,45.5C51.5,50.2,50.9,54.4,49.9,57.4C49.4,58.9,48.9,60.1,48.2,60.9C47.6,61.7,47,62,46.5,62C46,62,45.4,61.7,44.8,60.9C44.1,60.1,43.6,58.9,43.1,57.4C42.1,54.4,41.5,50.2,41.5,45.5C41.5,40.8,42.1,36.6,43.1,33.6C43.6,32.1,44.1,30.9,44.8,30.1C45.4,29.3,46,29,46.5,29C47,29,47.6,29.3,48.2,30.1C48.9,30.9,49.4,32.1,49.9,33.6C50.9,36.6,51.5,40.8,51.5,45.5Z');
                animation-timing-function: cubic-bezier(.8, 0, .2, 1);
            }

            100% {
                d: path('M59.5,56C59.5,63.6,58.4,70.5,56.6,75.4C55.8,77.9,54.7,79.8,53.6,81.1C52.5,82.5,51.5,83,50.5,83C49.5,83,48.5,82.5,47.4,81.1C46.3,79.8,45.2,77.9,44.4,75.4C42.6,70.5,41.5,63.6,41.5,56C41.5,48.4,42.6,41.5,44.4,36.6C45.2,34.1,46.3,32.2,47.4,30.9C48.5,29.5,49.5,29,50.5,29C51.5,29,52.5,29.5,53.6,30.9C54.7,32.2,55.8,34.1,56.6,36.6C58.4,41.5,59.5,48.4,59.5,56Z');
            }
        }

        @keyframes logosvg-a1_t {
            0% {
                transform: translate(37.5px, 45px) scaleX(-1) translate(-37.5px, -45px);
                animation-timing-function: cubic-bezier(.8, 0, .2, 1);
            }

            100% {
                transform: translate(29.5px, 28px) scaleX(-1) translate(-37.5px, -45px);
            }
        }

        @keyframes logosvg-a1_d {
            0% {
                d: path('M46.5,45C46.5,52.6,45.4,59.4,43.7,64.3C42.9,66.7,41.9,68.7,40.8,70C39.7,71.4,38.6,72,37.5,72C36.4,72,35.3,71.4,34.2,70C33.1,68.7,32.1,66.7,31.3,64.3C29.6,59.4,28.5,52.6,28.5,45C28.5,37.4,29.6,30.6,31.3,25.7C32.1,23.3,33.1,21.3,34.2,20C35.3,18.6,36.4,18,37.5,18C38.6,18,39.7,18.6,40.8,20C41.9,21.3,42.9,23.3,43.7,25.7C45.4,30.6,46.5,37.4,46.5,45Z');
                animation-timing-function: cubic-bezier(.8, 0, .2, 1);
            }

            100% {
                d: path('M66.5,62C66.5,74.3,64.3,85.4,60.7,93.4C58.9,97.4,56.8,100.6,54.5,102.8C52.2,105,49.8,106,47.5,106C45.2,106,42.8,105,40.5,102.8C38.2,100.6,36.1,97.4,34.3,93.4C30.7,85.4,28.5,74.3,28.5,62C28.5,49.7,30.7,38.6,34.3,30.6C36.1,26.6,38.2,23.4,40.5,21.2C42.8,19.1,45.2,18,47.5,18C49.8,18,52.2,19.1,54.5,21.2C56.8,23.4,58.9,26.6,60.7,30.6C64.3,38.6,66.5,49.7,66.5,62Z');
            }
        }

        @keyframes logosvg-a2_t {
            0% {
                transform: translate(51.5px, 45px) scale(0, 0) translate(-51.5px, -45.5px);
                animation-timing-function: cubic-bezier(.8, 0, .2, 1);
            }

            100% {
                transform: translate(51.5px, 45px) scale(1, 1) translate(-51.5px, -45.5px);
            }
        }

        @keyframes logosvg-a3_t {
            0% {
                transform: translate(19.5px, 45px) scaleX(-1) translate(-19.5px, -45px);
                animation-timing-function: cubic-bezier(.8, 0, .2, 1);
            }

            100% {
                transform: translate(0px, 17px) scaleX(-1) translate(-19.5px, -45px);
            }
        }

        @keyframes logosvg-a3_o {
            0% {
                opacity: 1;
                animation-timing-function: cubic-bezier(.8, 0, .2, 1);
            }

            100% {
                opacity: 0;
            }
        }

        @keyframes logosvg-a3_d {
            0% {
                d: path('M38.5,45C38.5,57.2,36.3,68.3,32.8,76.3C31.1,80.3,29,83.5,26.7,85.6C24.5,87.8,22,89,19.5,89C17,89,14.5,87.8,12.3,85.6C10,83.5,7.9,80.3,6.2,76.3C2.7,68.3,.5,57.2,.5,45C.5,32.8,2.7,21.7,6.2,13.7C7.9,9.7,10,6.5,12.3,4.4C14.5,2.2,17,1,19.5,1C22,1,24.5,2.2,26.7,4.4C29,6.5,31.1,9.7,32.8,13.7C36.3,21.7,38.5,32.8,38.5,45Z');
                animation-timing-function: cubic-bezier(.8, 0, .2, 1);
            }

            100% {
                d: path('M62.7,73C62.7,93,59.1,111.1,53.4,124.2C50.5,130.7,47.2,135.9,43.4,139.5C39.7,143.1,35.7,145,31.6,145C27.5,145,23.5,143.1,19.7,139.5C16,135.9,12.6,130.7,9.8,124.2C4.1,111.1,.5,93,.5,73C.5,53,4.1,34.9,9.8,21.8C12.6,15.3,16,10.1,19.7,6.5C23.5,2.9,27.5,1,31.6,1C35.7,1,39.7,2.9,43.4,6.5C47.2,10.1,50.5,15.3,53.4,21.8C59.1,34.9,62.7,53,62.7,73Z');
            }
        }

    
    </style>
    <path
        d="M51.5 45.5c0 4.7-0.6 8.9-1.6 11.9c-0.5 1.5-1 2.7-1.7 3.5c-0.6 .8-1.2 1.1-1.7 1.1c-0.5 0-1.1-0.3-1.7-1.1c-0.7-0.8-1.2-2-1.7-3.5c-1-3-1.6-7.2-1.6-11.9c0-4.7 .6-8.9 1.6-11.9c.5-1.5 1-2.7 1.7-3.5c.6-0.8 1.2-1.1 1.7-1.1c.5 0 1.1 .3 1.7 1.1c.7 .8 1.2 2 1.7 3.5c1 3 1.6 7.2 1.6 11.9Z"
        stroke="#000" transform="translate(46.5,45) scale(-1,1) translate(-46.5,-45.5)"
        class='path_1 motion'/>
    <path
        d="M46.5 45c0 7.6-1.1 14.4-2.8 19.3c-0.8 2.4-1.8 4.4-2.9 5.7c-1.1 1.4-2.2 2-3.3 2c-1.1 0-2.2-0.6-3.3-2c-1.1-1.3-2.1-3.3-2.9-5.7c-1.7-4.9-2.8-11.7-2.8-19.3c0-7.6 1.1-14.4 2.8-19.3c.8-2.4 1.8-4.4 2.9-5.7c1.1-1.4 2.2-2 3.3-2c1.1 0 2.2 .6 3.3 2c1.1 1.3 2.1 3.3 2.9 5.7c1.7 4.9 2.8 11.7 2.8 19.3Z"
        stroke="#000" transform="translate(37.5,45) scale(-1,1) translate(-37.5,-45)"
        class='path_2 motion'
         />
    <path
        d="M51.5 45.5c0 4.7-0.6 8.9-1.6 11.9c-0.5 1.5-1 2.7-1.7 3.5c-0.6 .8-1.2 1.1-1.7 1.1c-0.5 0-1.1-0.3-1.7-1.1c-0.7-0.8-1.2-2-1.7-3.5c-1-3-1.6-7.2-1.6-11.9c0-4.7 .6-8.9 1.6-11.9c.5-1.5 1-2.7 1.7-3.5c.6-0.8 1.2-1.1 1.7-1.1c.5 0 1.1 .3 1.7 1.1c.7 .8 1.2 2 1.7 3.5c1 3 1.6 7.2 1.6 11.9Z"
        stroke="#000" transform="translate(51.5,45) scale(0,0) translate(-51.5,-45.5)"
        class='path_3 motion' 
         />
    <path
        d="M38.5 45c0 12.2-2.2 23.3-5.7 31.3c-1.7 4-3.8 7.2-6.1 9.3c-2.2 2.2-4.7 3.4-7.2 3.4c-2.5 0-5-1.2-7.2-3.4c-2.3-2.1-4.4-5.3-6.1-9.3c-3.5-8-5.7-19.1-5.7-31.3c0-12.2 2.2-23.3 5.7-31.3c1.7-4 3.8-7.2 6.1-9.3c2.2-2.2 4.7-3.4 7.2-3.4c2.5 0 5 1.2 7.2 3.4c2.3 2.1 4.4 5.3 6.1 9.3c3.5 8 5.7 19.1 5.7 31.3Z"
        stroke="#000" transform="translate(19.5,45) scale(-1,1) translate(-19.5,-45)"
        class='path_4 motion'
         />
    <path
        d="M78.6 42.3h-8.1v-7.3h-2.2v16.5h2.2v-7.2h8.1v7.2h2.2v-16.5h-2.2v7.3Zm15-0.3c-0.8-1.3-2.4-1.9-4.1-1.9c-3 0-5.5 2.2-5.5 5.8c0 3.5 2.5 5.8 5.6 5.8c1.6 0 3.2-0.7 4-2v1.8h2v-11.2h-2v1.7Zm-3.9 7.8c-2 0-3.6-1.7-3.6-3.9c0-2.3 1.6-3.9 3.6-3.9c1.9 0 3.9 1.4 3.9 3.9c0 2.4-1.8 3.9-3.9 3.9Zm14.9-9.7c-1.5 0-2.6 .8-3.2 2.7v-2.5h-2.1v11.2h2.1v-4.1c0-3 .9-5.3 3.1-5.3c.5 0 1.1 .1 1.7 .4l.3-2c-0.3-0.2-1.2-0.4-1.9-0.4Zm12.5 1.9c-0.7-1.3-2.3-1.9-4-1.9c-3.1 0-5.6 2.2-5.6 5.8c0 3.5 2.6 5.8 5.6 5.8c1.6 0 3.3-0.7 4-2v1.8h2.1v-11.2h-2.1v1.7Zm-3.8 7.8c-2 0-3.7-1.7-3.7-3.9c0-2.3 1.7-3.9 3.7-3.9c1.8 0 3.8 1.4 3.8 3.9c0 2.4-1.8 3.9-3.8 3.9Zm13.8-1.3l-3.4-8.2h-2.3l4.5 10.9l-2.3 5.7h2.2l7-16.6h-2.3l-3.4 8.2Z"
        fill="#000" />
</svg>