<svg width="34" height="58" viewBox="0 0 34 58" fill="none" xmlns="http://www.w3.org/2000/svg">
<path d="M33.5 29.3257C33.5 32.3473 33.1018 35.0625 32.4712 37.0051C32.155 37.9792 31.7892 38.7313 31.407 39.2293C31.0193 39.7346 30.6758 39.9044 30.4039 39.9044C30.132 39.9044 29.7885 39.7346 29.4008 39.2293C29.0186 38.7313 28.6528 37.9792 28.3366 37.0051C27.706 35.0625 27.3077 32.3473 27.3077 29.3257C27.3077 26.3041 27.706 23.589 28.3366 21.6463C28.6528 20.6722 29.0186 19.9201 29.4008 19.4221C29.7885 18.9169 30.132 18.7471 30.4039 18.7471C30.6758 18.7471 31.0193 18.9169 31.407 19.4221C31.7892 19.9201 32.155 20.6722 32.4712 21.6463C33.1018 23.589 33.5 26.3041 33.5 29.3257Z" stroke="black"/>
<path d="M30.2308 29.0002C30.2308 33.9086 29.5404 38.331 28.439 41.5088C27.8875 43.1 27.2422 44.352 26.5503 45.1963C25.8555 46.0442 25.1663 46.4216 24.5192 46.4216C23.8721 46.4216 23.183 46.0442 22.4881 45.1963C21.7963 44.352 21.1509 43.1 20.5994 41.5088C19.498 38.331 18.8077 33.9086 18.8077 29.0002C18.8077 24.0918 19.498 19.6694 20.5994 16.4916C21.1509 14.9004 21.7963 13.6484 22.4881 12.8041C23.183 11.9562 23.8721 11.5789 24.5192 11.5789C25.1663 11.5789 25.8555 11.9562 26.5503 12.8041C27.2422 13.6484 27.8875 14.9004 28.439 16.4916C29.5404 19.6694 30.2308 24.0918 30.2308 29.0002Z" stroke="black"/>
<path d="M25 29C25 36.9556 23.5813 44.134 21.3079 49.3049C20.1709 51.891 18.8299 53.9526 17.3662 55.3607C15.905 56.7665 14.3458 57.5 12.75 57.5C11.1542 57.5 9.59501 56.7665 8.13377 55.3607C6.67007 53.9526 5.32911 51.891 4.1921 49.3049C1.91871 44.134 0.5 36.9556 0.5 29C0.5 21.0444 1.91871 13.866 4.1921 8.69514C5.32911 6.10901 6.67007 4.04743 8.13377 2.63929C9.59501 1.23352 11.1542 0.5 12.75 0.5C14.3458 0.5 15.905 1.23352 17.3662 2.63929C18.8299 4.04743 20.1709 6.10901 21.3079 8.69514C23.5813 13.866 25 21.0444 25 29Z" stroke="black"/>
</svg>
