<svg width="22" height="16" viewBox="0 0 22 16" fill="none" xmlns="http://www.w3.org/2000/svg">
<path d="M20.8295 2.92192C20.5931 2.03375 19.8965 1.33426 19.0121 1.09688C17.4091 0.665527 10.9812 0.665527 10.9812 0.665527C10.9812 0.665527 4.55333 0.665527 2.95027 1.09688C2.06589 1.3343 1.36935 2.03375 1.13294 2.92192C0.703415 4.53177 0.703415 7.89058 0.703415 7.89058C0.703415 7.89058 0.703415 11.2494 1.13294 12.8592C1.36935 13.7474 2.06589 14.4178 2.95027 14.6551C4.55333 15.0865 10.9812 15.0865 10.9812 15.0865C10.9812 15.0865 17.4091 15.0865 19.0121 14.6551C19.8965 14.4178 20.5931 13.7474 20.8295 12.8592C21.259 11.2494 21.259 7.89058 21.259 7.89058C21.259 7.89058 21.259 4.53177 20.8295 2.92192ZM8.87892 10.9401V4.84103L14.2514 7.89066L8.87892 10.9401Z" fill="#E84747"/>
</svg>
