<svg width="19" height="18" viewBox="0 0 19 18" fill="none" xmlns="http://www.w3.org/2000/svg">
<path d="M7.49207 8.58765L7.05149 9.02823L1.82227 14.2575V16.6703H4.23513L9.4644 11.4419L9.90378 11.0026L10.4923 11.2019C11.0158 11.3793 11.5509 11.4683 12.0934 11.4683L7.49207 8.58765ZM7.49207 8.58765L7.29074 7.998M7.49207 8.58765L7.29074 7.998M7.29074 7.998C7.11277 7.47677 7.02429 6.9416 7.02429 6.39914C7.02429 3.6053 9.29951 1.33008 12.0934 1.33008M7.29074 7.998L12.0934 1.33008M12.0934 1.33008C14.8872 1.33008 17.1624 3.60531 17.1624 6.39906C17.1624 9.19288 14.8872 11.4681 12.0934 11.4683L12.0934 1.33008ZM4.19623 16.7092C4.19633 16.7091 4.19643 16.709 4.19653 16.7089L4.19629 16.7091L4.19623 16.7092Z" stroke="white" stroke-width="2"/>
</svg>
