<svg width="21" height="15" viewBox="0 0 21 15" fill="none" xmlns="http://www.w3.org/2000/svg">
<path d="M20.5001 2.56089C20.2637 1.67068 19.5672 0.969586 18.6828 0.731659C17.0798 0.299316 10.6519 0.299316 10.6519 0.299316C10.6519 0.299316 4.224 0.299316 2.62094 0.731659C1.73656 0.969624 1.04002 1.67068 0.803613 2.56089C0.374084 4.17444 0.374084 7.54096 0.374084 7.54096C0.374084 7.54096 0.374084 10.9075 0.803613 12.521C1.04002 13.4112 1.73656 14.0831 2.62094 14.321C4.224 14.7534 10.6519 14.7534 10.6519 14.7534C10.6519 14.7534 17.0798 14.7534 18.6828 14.321C19.5672 14.0831 20.2637 13.4112 20.5001 12.521C20.9297 10.9075 20.9297 7.54096 20.9297 7.54096C20.9297 7.54096 20.9297 4.17444 20.5001 2.56089ZM8.54959 10.5975V4.48441L13.922 7.54103L8.54959 10.5975Z" fill="#E84747"/>
</svg>
